<svg xmlns="http://www.w3.org/2000/svg" xmlns:xlink="http://www.w3.org/1999/xlink" viewBox="0,0,256,256" width="100px" height="100px"><g fill="#4bc2bc" fill-rule="nonzero" stroke="none" stroke-width="1" stroke-linecap="butt" stroke-linejoin="miter" stroke-miterlimit="10" stroke-dasharray="" stroke-dashoffset="0" font-family="none" font-weight="none" font-size="none" text-anchor="none" style="mix-blend-mode: normal"><g transform="scale(5.12,5.12)"><path d="M34.42773,4.84961l-0.61719,0.11914l-12,2.30859l-0.16406,0.0332l-0.14648,0.08398l-18,10.38867l-0.5,0.28906v0.57813v2.31055v1.21094l1.18945,-0.23047l1.81055,-0.34961v12.64844v0.57813l0.5,0.28906l3,1.73047l0.50195,0.28906l0.5,-0.29102l1.49805,-0.86914l1,0.58008v1.73242v0.57813l0.5,0.28906l11,6.34961l0.5,0.28906l0.5,-0.28906l18,-10.39062l0.5,-0.28906v-0.57617v-7.51172l2.5,-1.44141l0.5,-0.28906v-0.57812v-2.31055v-0.33008l-0.19727,-0.26562l-12,-16.16016zM33.93164,6.27734l11.69922,15.75586l-17.5625,10.14453l-11.70117,-15.76172zM32.59375,6.47461l-16.68164,9.62695l-10.49805,2.02148l16.67383,-9.625zM15.89258,16.61523l11.85742,15.97266v1.46875l-11.54883,-15.55664c-0.04548,-0.0617 -0.11675,-0.09914 -0.19336,-0.10156c-0.01839,-0.00006 -0.03673,0.0019 -0.05469,0.00586l-8.98437,1.72852l-0.01562,0.00195l-2.70312,0.52344v-1.80273zM15.89258,18.92383l8.85742,11.93359v13.33984l-10.5,-6.0625v-2.16406v-6.92969c0.0001,-0.08942 -0.04756,-0.17208 -0.125,-0.2168l-4,-2.30859c-0.04371,-0.02543 -0.0941,-0.03701 -0.14453,-0.0332c-0.13039,0.01023 -0.23086,0.11921 -0.23047,0.25v8.80469l-2.5,-1.44141v-13.50977zM45.75,22.54297v1.73242l-2.875,1.6582c-0.00739,0.00419 -0.01456,0.00875 -0.02148,0.01367l-14.60352,8.43359v-1.73047zM42.75,26.58398v7.51172l-17.5,10.10156v-12.66602l2.54883,3.43359c0.07605,0.10181 0.21637,0.13038 0.32617,0.06641zM10.25,27.16602l1.5,0.86523v6.63477l-1.5,0.87109zM16.98047,28.21484c-0.13039,0.01023 -0.23086,0.11921 -0.23047,0.25v5.77344c-0.0001,0.08942 0.04756,0.17208 0.125,0.2168l5,2.88477c0.0774,0.04467 0.17275,0.04463 0.25011,-0.00009c0.07736,-0.04473 0.12498,-0.12734 0.12489,-0.2167v-5.77148c0.0001,-0.08942 -0.04756,-0.17208 -0.125,-0.2168l-5,-2.88672c-0.04371,-0.02543 -0.0941,-0.03701 -0.14453,-0.0332zM12.25,28.32031l1.5,0.86523v6.35156l-1.5,-0.87109zM17.25,28.89648l1.5,0.86719v3.17578l-1.5,0.86523zM19.25,30.05273l2.5,1.44336v2.88477l-2.5,-1.44141zM19,33.37109l2.75,1.58789v1.73242l-4.25,-2.45312z"></path></g></g></svg>